<?xml version="1.0" encoding="iso-8859-1"?>
<!-- Generator: Adobe Illustrator 19.0.0, SVG Export Plug-In . SVG Version: 6.00 Build 0)  -->
<svg version="1.1" id="Layer_1" xmlns="http://www.w3.org/2000/svg" xmlns:xlink="http://www.w3.org/1999/xlink" x="0px" y="0px"
	 viewBox="0 0 512.25 512.25" style="enable-background:new 0 0 512.25 512.25;" xml:space="preserve">
<g>
	<g>
		<path style="fill:#FFEBB7;" d="M495.68,184.07c-1.281-3.25-4.578-5.188-7.984-5.055c-153.578,10.328-309.344,10.328-462.922,0
			c-3.789-0.148-7.023,2.047-8.156,5.531c-5.484,17.008-8.383,34.453-8.383,50.453c0,4.422,3.578,8,8,8h480c4.422,0,8-3.578,8-8
			C504.235,220.554,503.219,203.211,495.68,184.07z"/>
	</g>
	<g>
		<path style="fill:#E6BE94;" d="M511.993,234.367c-0.328-4.156-3.805-7.367-7.977-7.367H296.454c-4.422,0-8,3.578-8,8h-64.219
			c0-4.422-3.578-8-8-8h-208c-4.172,0-7.641,3.203-7.977,7.367c-0.141,1.805-3.281,44.703,16.844,84.258
			c1.375,2.695,4.141,4.375,7.133,4.375c0.18,0,0.359-0.008,0.539-0.016c62.016-4.172,124.82-6.688,186.625-7.484l36.844-0.289
			l52.789,0.289c61.828,0.797,124.617,3.313,186.609,7.477c3.961,0.328,7.383-2.32,8.336-5.945
			C515.18,277.929,512.133,236.148,511.993,234.367z"/>
	</g>
	<g>
		<path style="fill:#E3001E;" d="M311.626,309.938l-22.078-53.305c-1.688-4.078-6.391-6.008-10.453-4.328
			c-3.843,1.59-5.668,5.829-4.469,9.732l-15.479,4.817l-0.279-0.675c-1.688-4.078-6.391-6-10.453-4.328
			c-4.078,1.688-6.016,6.367-4.328,10.453l23.195,56c1.234,2.992,4.156,4.938,7.391,4.938s6.156-1.953,7.391-4.938l5.594-13.516
			l13.516,5.602c2.992,1.25,6.43,0.562,8.719-1.734C312.18,316.368,312.868,312.93,311.626,309.938z"/>
	</g>
	<g>
		<path style="fill:#E3001E;" d="M263.846,261.852c-4.063-1.68-8.766,0.25-10.453,4.328l-0.208,0.503l-15.304-5.158
			c1.318-3.953-0.531-8.301-4.433-9.916c-4.055-1.688-8.766,0.242-10.453,4.328l-22.367,54c-1.242,2.992-0.555,6.43,1.734,8.719
			c2.297,2.297,5.734,2.992,8.719,1.734l13.516-5.602l5.602,13.516c1.242,2.992,4.156,4.938,7.391,4.938s6.156-1.953,7.391-4.938
			l23.195-56C269.862,268.22,267.924,263.54,263.846,261.852z"/>
	</g>
	<g>
		<circle style="fill:#FF4F19;" cx="256.235" cy="235" r="48"/>
	</g>
	<g>
		<circle style="fill:#E3001E;" cx="256.235" cy="235" r="32"/>
	</g>
</g>
<g>
</g>
<g>
</g>
<g>
</g>
<g>
</g>
<g>
</g>
<g>
</g>
<g>
</g>
<g>
</g>
<g>
</g>
<g>
</g>
<g>
</g>
<g>
</g>
<g>
</g>
<g>
</g>
<g>
</g>
</svg>
