<?xml version="1.0"?>
<svg xmlns="http://www.w3.org/2000/svg" height="512px" viewBox="0 -42 512.0004 512" width="512px" class=""><g><path d="m207.371094 142.167969c-4.21875-4.222657-10.820313-5.511719-16.304688-3.113281l-182.152344 78.769531c-5.40625 2.34375-8.91015575 7.671875-8.91015575 13.558593v182.152344c0 8.152344 6.61718775 14.769532 14.76953175 14.769532h241.226562l9.855469-144.117188-9.855469-93.390625zm0 0" fill="#7ee77f" data-original="#7EE77F"/><path d="m504.832031 100.566406c-4.449219-2.667968-9.972656-2.804687-14.550781-.371094l-211.878906 113.003907-22.402344-22.402344v237.507813h241.230469c8.152343 0 14.769531-6.617188 14.769531-14.769532v-300.304687c0-5.1875-2.71875-9.992188-7.167969-12.664063zm0 0" fill="#5ac77e" data-original="#5AC77E" class="active-path"/><path d="m207.367188 63.402344c-4.28125-4.28125-10.746094-5.515625-16.304688-3.113282l-182.152344 78.769532c-7.484375 3.238281-10.929687 11.929687-7.691406 19.417968 3.191406 7.386719 12.023438 10.894532 19.417969 7.695313l172.941406-74.789063 62.421875 62.425782 9.855469-14.480469-9.855469-27.292969zm0 0" fill="#979fef" data-original="#979FEF" class="" data-old_color="#979fef" style="fill:#64CFC5"/><path d="m497.230469 0h-44.304688c-5.835937 0-11.121093 3.433594-13.492187 8.761719-2.375 5.328125-1.390625 11.550781 2.511718 15.886719l13.71875 15.242187-177.265624 94.542969-22.398438-22.402344v41.777344l9.25 9.25c4.597656 4.597656 11.660156 5.648437 17.394531 2.589844l193.378907-103.136719 10.230468 11.367187c4.042969 4.496094 10.617188 6.078125 16.269532 3.910156 5.707031-2.191406 9.476562-7.675781 9.476562-13.789062v-49.230469c0-8.15625-6.613281-14.769531-14.769531-14.769531zm0 0" fill="#5c6ed6" data-original="#5C6ED6" class="" data-old_color="#5c6ed6" style="fill:#44BFA8"/><path d="m126.035156 167.175781v261.128907h-29.539062v-248.347657zm0 0" fill="#5ac77e" data-original="#5AC77E" class="active-path"/><path d="m222.527344 157.320312v270.984376h-29.539063v-289.917969c5.070313-1.417969 10.582031-.019531 14.382813 3.78125zm0 0" fill="#5ac77e" data-original="#5AC77E" class="active-path"/><g fill="#45a362"><path d="m319.015625 191.535156v236.769532h-29.535156v-221.015626zm0 0" data-original="#000000" class=""/><path d="m415.507812 140.070312v288.234376h-29.539062v-272.480469zm0 0" data-original="#000000" class=""/></g></g> </svg>
