<svg height="512pt" viewBox="0 -31 512 512" width="512pt" xmlns="http://www.w3.org/2000/svg"><path d="m4.390625 4.390625c-2.714844 2.714844-4.390625 6.464844-4.390625 10.609375v420c0 4.144531 1.675781 7.894531 4.390625 10.609375l57.804687-27.804687 2.195313-32.195313 30-30v-261.21875l-30-30-2.195313-32.195313zm0 0" fill="#fee276"/><path d="m507.609375 4.390625-57.804687 27.804687-2.195313 32.195313-31 35.921875v253.125l31 32.171875 2.195313 32.195313 57.804687 27.804687c2.714844-2.714844 4.390625-6.464844 4.390625-10.609375v-420c0-4.144531-1.675781-7.894531-4.390625-10.609375zm0 0" fill="#fed330"/><path d="m507.5 445.5c-2.699219 2.699219-6.300781 4.5-10.5 4.5h-482c-4.199219 0-7.800781-1.800781-10.5-4.5l60-60 38.699219-30h320.5l23.800781 30zm0 0" fill="#fed330"/><path d="m447.5 385.5 60 60c-2.699219 2.699219-6.300781 4.5-10.5 4.5h-241v-94.5h167.699219zm0 0" fill="#fd9e28"/><path d="m507.5 4.5-91 90h-304l-48-30-60-60c2.699219-2.699219 6.300781-4.5 10.5-4.5h482c4.199219 0 7.800781 1.800781 10.5 4.5zm0 0" fill="#fed330"/><path d="m416.5 94.5h-160.5v-94.5h241c4.199219 0 7.800781 1.800781 10.5 4.5zm0 0" fill="#fd9e28"/><path d="m452 75v203.699219l-65.5 55.800781-130.5 12.898438-126.300781 12.601562-69.699219-60v-60l45-30-45-90v-45c0-4.199219 1.800781-7.800781 4.5-10.5s6.300781-4.5 10.5-4.5h362c4.199219 0 7.800781 1.800781 10.5 4.5s4.5 6.300781 4.5 10.5zm0 0" fill="#6b81a1"/><path d="m452 75v203.699219l-65.5 55.800781-130.5 12.898438v-287.398438h181c4.199219 0 7.800781 1.800781 10.5 4.5s4.5 6.300781 4.5 10.5zm0 0" fill="#466289"/><path d="m211 195c0-24.8125-20.1875-45-45-45h-17.5625c-6.195312-17.460938-23.882812-30-43.4375-30h-45v120h106c24.8125 0 45-20.1875 45-45zm0 0" fill="#e1ebf0"/><path d="m316 210c-24.8125 0-45-20.1875-45-45s20.1875-45 45-45 45 20.1875 45 45-20.1875 45-45 45zm0 0" fill="#fed330"/><path d="m452 278.699219v96.300781c0 4.199219-1.800781 7.800781-4.5 10.5s-6.300781 4.5-10.5 4.5h-362c-4.199219 0-7.800781-1.800781-10.5-4.5s-4.5-6.300781-4.5-10.5v-75h99.699219l85.800781-85.5c2.699219-3 6.601562-4.5 10.5-4.5s7.800781 1.5 10.5 4.5l49.5 49.199219 49.5-49.199219c5.699219-6 15.300781-6 21 0zm0 0" fill="#64e1dc"/><path d="m452 278.699219v96.300781c0 4.199219-1.800781 7.800781-4.5 10.5s-6.300781 4.5-10.5 4.5h-181v-180c3.898438 0 7.800781 1.5 10.5 4.5l49.5 49.199219 49.5-49.199219c5.699219-6 15.300781-6 21 0zm0 0" fill="#00c8c8"/></svg>