<svg height="512pt" viewBox="0 0 512 512" width="512pt" xmlns="http://www.w3.org/2000/svg"><path d="m432.261719 0h-352.523438c-43.96875 0-79.738281 35.769531-79.738281 79.738281v352.511719c0 43.980469 35.769531 79.75 79.738281 79.75h352.523438c43.96875 0 79.738281-35.769531 79.738281-79.75v-352.511719c0-43.96875-35.769531-79.738281-79.738281-79.738281zm0 0" fill="#ddf3fd"/><path d="m512 79.738281v352.511719c0 43.980469-35.769531 79.75-79.738281 79.75h-176.261719v-512h176.261719c43.96875 0 79.738281 35.769531 79.738281 79.738281zm0 0" fill="#b2e3fc"/><path d="m512 79.738281v20h-512v-20c0-43.96875 35.769531-79.738281 79.738281-79.738281h352.523438c43.96875 0 79.738281 35.769531 79.738281 79.738281zm0 0" fill="#1b6ca6"/><g fill="#fff"><path d="m396.949219 233.421875c0 8.277344-6.71875 15-15 15h-294.648438c-8.28125 0-15-6.722656-15-15 0-8.292969 6.71875-15 15-15h294.648438c8.28125 0 15 6.707031 15 15zm0 0"/><path d="m342.550781 293.421875c0 8.277344-6.722656 15-15 15h-240.25c-8.28125 0-15-6.722656-15-15 0-8.292969 6.71875-15 15-15h240.25c8.277344 0 15 6.707031 15 15zm0 0"/><path d="m371.53125 353.421875c0 8.277344-6.722656 15-15 15h-269.230469c-8.28125 0-15-6.722656-15-15 0-8.292969 6.71875-15 15-15h269.230469c8.277344 0 15 6.707031 15 15zm0 0"/><path d="m99.453125 49.871094c0 8.28125-6.714844 14.996094-15 14.996094-8.28125 0-14.996094-6.714844-14.996094-14.996094 0-8.285156 6.714844-15 14.996094-15 8.285156 0 15 6.714844 15 15zm0 0"/></g><path d="m139.453125 49.871094c0 8.28125-6.714844 14.996094-15 14.996094-8.28125 0-14.996094-6.714844-14.996094-14.996094 0-8.285156 6.714844-15 14.996094-15 8.285156 0 15 6.714844 15 15zm0 0" fill="#fede81"/><path d="m179.453125 49.871094c0 8.28125-6.714844 14.996094-15 14.996094-8.28125 0-14.996094-6.714844-14.996094-14.996094 0-8.285156 6.714844-15 14.996094-15 8.285156 0 15 6.714844 15 15zm0 0" fill="#8dd760"/><path d="m327.550781 308.421875h-71.550781v-30h71.550781c8.277344 0 15 6.707031 15 15 0 8.277344-6.722656 15-15 15zm0 0" fill="#ddf3fd"/><path d="m371.53125 353.421875c0 8.277344-6.722656 15-15 15h-100.53125v-30h100.53125c8.277344 0 15 6.707031 15 15zm0 0" fill="#ddf3fd"/><path d="m396.949219 233.421875c0 8.277344-6.71875 15-15 15h-125.949219v-30h125.949219c8.28125 0 15 6.707031 15 15zm0 0" fill="#ddf3fd"/><path d="m512 79.738281v20h-256v-99.738281h176.261719c43.96875 0 79.738281 35.769531 79.738281 79.738281zm0 0" fill="#183755"/></svg>