<?xml version="1.0" standalone="no"?>
<!DOCTYPE svg PUBLIC "-//W3C//DTD SVG 20010904//EN"
 "http://www.w3.org/TR/2001/REC-SVG-20010904/DTD/svg10.dtd">
<svg version="1.0" xmlns="http://www.w3.org/2000/svg"
 width="250.000000pt" height="250.000000pt" viewBox="0 0 250.000000 250.000000"
 preserveAspectRatio="xMidYMid meet">
<metadata>
Created by potrace 1.11, written by Peter Selinger 2001-2013
</metadata>
<g transform="translate(0.000000,250.000000) scale(0.100000,-0.100000)"
fill="#000000" stroke="none">
<path d="M1050 2393 c-218 -34 -296 -73 -335 -165 -11 -28 -15 -75 -15 -193
l0 -155 275 0 275 0 0 -34 0 -35 -427 -3 c-421 -3 -429 -3 -477 -26 -137 -63
-196 -158 -231 -374 -24 -150 -19 -261 22 -433 29 -128 95 -225 180 -266 38
-19 68 -23 174 -27 l127 -5 4 169 c4 143 8 176 25 214 35 77 94 143 164 180
l64 35 355 6 c195 3 366 10 380 14 70 23 138 87 171 160 17 36 19 72 19 375
l0 335 -30 51 c-57 101 -145 153 -294 173 -72 10 -370 13 -426 4z m-76 -167
c43 -18 66 -51 66 -97 0 -46 -38 -95 -79 -104 -61 -13 -131 43 -131 105 0 36
30 81 63 95 40 18 41 18 81 1z"/>
</g>
</svg>
