<svg width="213" height="66" viewBox="0 0 213 66" xmlns="http://www.w3.org/2000/svg"><title>0938EBBC-4D9F-4F23-A204-CFE40661D36D</title><path d="M24.864 42.901c.142-.007.2.008.23-.013 1.138-.864 2.28-1.723 3.409-2.6 1.238-.962 2.463-1.94 3.69-2.913.565-.45 1.127-.907 1.681-1.374 1.002-.842 1.985-1.708 2.995-2.54.959-.79 1.958-1.529 2.91-2.324 1.078-.902 2.123-1.845 3.184-2.767 1.932-1.678 3.873-3.347 5.799-5.034a186.492 186.492 0 0 0 3.878-3.465c1.295-1.196 2.551-2.43 3.824-3.65.371-.356.756-.702 1.108-1.078.93-.995 1.825-2.017 2.765-3 1.48-1.545 2.922-3.121 3.982-4.995.45-.796.795-1.635.927-2.566.134-.947-.765-2.14-1.615-2.329a5.293 5.293 0 0 0-.83-.131c-1.455-.088-2.847.228-4.213.687-.623.21-1.26.395-1.852.673-1.17.549-2.348 1.09-3.456 1.746-1.346.799-2.622 1.719-3.935 2.574-1.578 1.032-2.982 2.28-4.393 3.519-.898.786-1.734 1.641-2.577 2.488-1.008 1.015-2.042 2.014-2.974 3.098-1.207 1.407-2.319 2.896-3.482 4.342-1.637 2.034-3.039 4.234-4.43 6.435-.975 1.547-1.837 3.168-2.68 4.791a40.37 40.37 0 0 0-1.794 3.894c-.705 1.815-1.306 3.671-1.937 5.517-.11.318-.141.662-.214 1.015m92.13 2.519c-.44-.1-.795-.235-1.157-.256-2.059-.121-4.058.218-6.038.764a423.247 423.247 0 0 1-7.14 1.882c-1.474.38-2.948.771-4.44 1.064-.698.137-1.442.218-2.158-.054-.641-.243-1.249-.978-1.203-1.663.043-.65.214-1.293.343-1.937.05-.25.157-.492.208-.743.14-.685-.136-1.14-.813-1.335-1.07-.31-2.154-.241-3.213.002a54.78 54.78 0 0 0-4.005 1.06 94.643 94.643 0 0 0-4.808 1.628c-1.133.414-2.276.766-3.476.876-.385.034-.814.014-1.167-.124-.833-.327-1.12-1.085-.71-1.9.303-.603.717-1.151 1.1-1.71.412-.6.848-1.18 1.265-1.775.05-.07.053-.172.1-.343-.216-.088-.415-.21-.628-.243-1.81-.294-3.534.066-5.257.625-2.382.772-4.576 1.955-6.82 3.026-1.24.591-2.417 1.324-3.609 2.014a140.208 140.208 0 0 0-3.052 1.833c-1.077.66-2.142 1.34-3.218 2-.299.183-.613.35-.937.48-.467.19-.903.132-1.296-.224-.664-.6-.46-2.042.376-2.34 1.185-.422 2.229-1.094 3.302-1.725 1.875-1.1 3.591-2.411 5.23-3.829.6-.52 1.163-1.082 1.737-1.634.076-.073.112-.189.196-.332-.639-.154-1.18.07-1.686.24-1.22.409-2.44.84-3.604 1.381-1.553.723-3.066 1.538-4.577 2.35-1.116.599-2.205 1.25-3.297 1.894-.623.368-1.224.778-1.845 1.152-1.489.9-2.97 1.815-4.48 2.675a171.981 171.981 0 0 1-4.764 2.594 184.865 184.865 0 0 1-4.39 2.24c-.778.383-1.586.71-2.46.811-.587.067-1.169-.025-1.493-.559-.28-.459-.408-1-.049-1.517.187-.268.334-.575.565-.798.759-.732 1.518-1.473 2.332-2.142 1.95-1.603 3.639-3.469 5.318-5.33 1.12-1.245 2.206-2.554 3.137-4.165-.27.126-.415.173-.54.254-1.424.897-2.859 1.78-4.26 2.714-.74.493-1.42 1.075-2.118 1.623-.885.695-1.788 1.37-2.638 2.106-1.293 1.119-2.645 2.166-3.748 3.5-1.017 1.232-2.182 2.339-3.199 3.57-1.226 1.482-2.368 3.031-3.23 4.768a9.505 9.505 0 0 1-.705 1.214c-.79 1.133-1.147 2.464-1.696 3.705-.19.428-.462.794-.872.961-.36.15-.8.159-1.1-.206-.34-.417-.786-.853-.539-1.437.32-.759.354-1.553.43-2.339.084-.838.047-1.687.104-2.528.07-1.056.18-2.109.275-3.163.153-1.706.295-3.415.466-5.12.074-.72.208-1.433.337-2.308-.283.205-.465.326-.637.463-1.788 1.41-3.59 2.804-5.356 4.24a482.622 482.622 0 0 0-7.001 5.79 51.498 51.498 0 0 0-3.117 2.857c-1.06 1.055-2.037 2.194-3.078 3.273-.27.281-.62.505-.97.688-.33.173-1.02-.214-1.118-.627-.2-.843-.189-1.734.771-2.232.52-.27.902-.814 1.324-1.254 1.612-1.68 3.338-3.234 5.142-4.708.818-.668 1.596-1.387 2.42-2.048 1.041-.835 2.116-1.63 3.164-2.458.31-.244.562-.561.873-.804 1.44-1.128 2.896-2.232 4.334-3.362.846-.664 1.664-1.364 2.5-2.04.2-.161.443-.267.64-.431a3.059 3.059 0 0 0 1.075-1.753c.448-1.988.987-3.957 1.719-5.864.527-1.374 1.005-2.771 1.612-4.11.65-1.431 1.392-2.823 2.155-4.197a89.682 89.682 0 0 1 2.589-4.363c1.38-2.183 2.844-4.315 4.457-6.336.847-1.06 1.745-2.078 2.612-3.121.31-.377.59-.78.897-1.16.221-.275.448-.546.697-.794.796-.797 1.596-1.589 2.408-2.368a60.275 60.275 0 0 1 1.854-1.709c1.04-.917 2.055-1.865 3.15-2.712 1.261-.973 2.64-1.8 3.891-2.788 1.064-.841 2.275-1.413 3.435-2.066 1.058-.595 2.22-1.011 3.347-1.478a15.067 15.067 0 0 1 3.372-.952C61.819.016 63.085-.1 64.39.113c1.464.236 2.82 1.788 2.97 3.168.092.84.026 1.634-.276 2.414-.05.132-.12.264-.131.403-.083.92-.644 1.617-1.105 2.356-1.24 1.988-2.811 3.71-4.407 5.406-1.141 1.212-2.366 2.348-3.546 3.527-.85.847-1.67 1.724-2.532 2.557-.861.831-1.758 1.628-2.642 2.438-1.056.971-2.095 1.961-3.173 2.907a1137.748 1137.748 0 0 1-7.085 6.137 338.74 338.74 0 0 1-4.293 3.654 357.2 357.2 0 0 1-4.422 3.607c-1.662 1.341-3.34 2.665-5 4.011-.892.723-1.75 1.487-2.634 2.22-.558.463-1.12.922-1.707 1.346-.296.212-.44.48-.498.81-.222 1.297-.497 2.588-.64 3.895-.223 2.01-.36 4.028-.521 6.044-.032.413-.005.831-.005 1.42.363-.508.666-.864.893-1.26.93-1.621 2.041-3.11 3.253-4.52a75.472 75.472 0 0 1 3.534-3.825c1.787-1.813 3.772-3.384 5.73-4.99a51.03 51.03 0 0 1 4.216-3.076 40.034 40.034 0 0 1 5.28-2.958c.634-.292 1.271-.299 1.922-.123.57.155.794.526.802 1.148a2.746 2.746 0 0 1-.412 1.473c-.707 1.197-1.48 2.34-2.408 3.385-1.374 1.546-2.667 3.163-4.05 4.701-.909 1.01-1.913 1.93-2.872 2.893a.826.826 0 0 0-.25.459c.313-.127.642-.224.935-.384 1.73-.936 3.454-1.887 5.18-2.831.488-.267.988-.518 1.47-.8 1.233-.728 2.457-1.473 3.69-2.203 1.82-1.074 3.619-2.19 5.473-3.2 1.957-1.065 3.935-2.105 5.968-3.012a18.48 18.48 0 0 1 5.073-1.44c.804-.107 1.535.21 2.262.434.364.113.673.526.618 1.02-.048.44-.114.877-.185 1.42.675-.285 1.316-.536 1.94-.825 1.89-.874 3.849-1.518 5.917-1.785a12.38 12.38 0 0 1 2.251-.075c.868.047 1.712.274 2.47.73.66.398.95.972.905 1.77-.043.79-.322 1.45-.793 2.06-.225.293-.414.61-.707 1.045.302-.043.455-.043.592-.088 1.535-.525 3.057-1.087 4.604-1.576a82.757 82.757 0 0 1 4.593-1.33c1.867-.476 3.728-.431 5.52.352.441.193.892.44 1.237.768.515.491.73 1.149.614 1.873-.09.556-.205 1.11-.32 1.662-.056.272-.135.539-.223.888.497 0 .947.07 1.364-.015 1.098-.224 2.186-.504 3.273-.782 1.612-.412 3.223-.838 4.834-1.26.884-.233 1.767-.47 2.653-.702 2.125-.557 4.276-.933 6.484-.731.862.079 1.711.264 2.473.725.69.417 1.133.977 1.105 1.889.17 0 .327.023.476-.003.719-.122 1.432-.296 2.155-.38 1.024-.119 2.055-.237 3.084-.238 1.212-.003 2.228.53 3.005 1.463.243.294.51.467.878.522 1.954.296 3.904.611 5.86.893 2.282.329 4.572.653 6.885.59 2.043-.056 4.083-.187 6.124-.287.047-.002.096-.028.14-.017.753.173 1.465-.122 2.196-.192.726-.067 1.451-.156 2.178-.201.95-.062 1.883-.405 2.851-.196.046.01.109.03.137.008.747-.546 1.62-.314 2.44-.409.227-.028.446-.131.675-.164 1.138-.17 2.275-.386 3.419-.465.563-.038 1.102-.137 1.655-.21.424-.058.889.155 1.307.082.408-.07.745-.352 1.236-.312.499.039 1.016-.16 1.527-.25.462-.08.923-.162 1.387-.23 1.035-.153 2.07-.32 3.111-.439.784-.088 1.576-.092 2.36-.174.5-.052.992-.183 1.487-.27a1.66 1.66 0 0 1 .407-.024c.41.034.804.023 1.206-.109.385-.124.795-.171 1.198-.237.411-.067.823-.142 1.238-.166.718-.043 1.437-.05 2.155-.073.07-.002.171.02.206-.018.34-.359.78-.143 1.167-.211.571-.1 1.152-.15 1.713-.288.867-.212 1.743-.255 2.628-.246.069.001.15.038.203.01 1.016-.51 2.103-.179 3.153-.277.335-.03.673.038.999-.194.184-.132.503-.117.755-.097.732.058 1.432-.37 2.171-.134.458-.295 1.028-.1 1.5-.35.135-.07.323-.038.486-.054.648-.063 1.301-.01 1.944-.224.189-.063.481.19.783.325.56-.149 1.082-1.022 1.859-.259.436-.385.944-.435 1.474-.412.135.006.292 0 .405-.063.183-.104.332-.135.519-.007.083.058.25.105.316.06.384-.254.79-.249 1.214-.17.143.026.292.022.432.06.272.07.508.154.766-.112.13-.137.431-.178.643-.154.56.068 1.09.087 1.66-.06.576-.147 1.208-.086 1.814-.1.134-.004.31.02.397.104.221.216.374.276.65.044.116-.1.415.017.715.045-.294.462-.718.402-1.046.471-.707.155-1.434.212-2.149.332-.854.144-1.7.336-2.556.465-1.997.3-3.998.56-5.995.856-1.528.228-3.052.501-4.582.723-.695.1-1.403.094-2.098.189-2.35.323-4.698.67-7.046 1.006-1.255.177-2.51.362-3.769.516-1.186.146-2.379.238-3.564.388-.863.11-1.716.29-2.575.416-1.209.178-2.422.326-3.632.501-1.487.215-2.972.452-4.46.664-.904.13-1.815.219-2.72.349-1.277.182-2.55.389-3.825.575-1.136.168-2.275.324-3.412.489-1.115.162-2.229.333-3.345.492-.953.134-1.907.279-2.866.374-2.34.236-4.68.461-7.023.659-1.358.114-2.717.207-4.079.228-1.125.017-2.254-.063-3.38-.143a59.983 59.983 0 0 1-3.285-.324 414.342 414.342 0 0 1-7.038-.96c-.478-.072-.94-.26-1.4-.423-.444-.156-.747-.48-.94-.905-.234-.518-.615-.722-1.189-.639-1.534.225-3.07.444-4.61.63-.697.084-1.403.117-2.105.106-.287-.004-.585-.154-.853-.288-.594-.298-.918-.844-.64-1.718.056-.176.094-.357.176-.676" fill="#424243" fill-rule="evenodd"/></svg>