<svg width="130" height="39" viewBox="0 0 130 39" xmlns="http://www.w3.org/2000/svg"><title>E2769057-DA1F-45B5-8894-27C9EB0774C4</title><g fill="none" fill-rule="evenodd"><path d="M18.311.092H.308v9.215c0 1.408.377 3.77.56 4.736 2.207 11.681 8.63 19.113 17.443 24.055 8.813-4.942 15.236-12.374 17.444-24.055.182-.966.56-3.328.56-4.736V.092H18.31z" fill="#424243"/><path d="M23.987 15.752c-1.382-6.083-4.647-8.081-4.998-8.845-.387-.54-.775-1.498-.775-1.498v.012a.617.617 0 0 0-.028-.084c-.04.537-.062.746-.572 1.29-.791.618-4.852 4.015-5.183 10.926-.308 6.448 4.675 10.29 5.344 10.775 0 .001.187.094.187.097.043.03-.066-12.991.305-12.991.193 0 .444 10.624.553 12.903-.016.042.77-.285 1.405-.939 1.656-1.523 4.84-5.36 3.762-11.646M20.22 27.398v.012s-.011-.001 0-.012" fill="#FEFEFE"/><path d="M18.82 28.337c-.333.184-.556.175-.858.088l.241 2.94.603.2s.045-1.837.014-3.228" fill="#FEFEFE"/><path d="M52.003 28.006c0 3.13-1.164 5.638-5.3 5.638-1.386 0-5.3-.321-5.3-5.357v-9.168h1.325v9.53c0 3.17 2.349 3.75 3.996 3.75 2.529 0 3.935-1.163 3.935-4.092V19.12h1.344v8.887zM62.245 33.282v-4.975c0-1.283 0-2.046-.221-2.608-.361-.922-1.345-1.123-1.987-1.123-1.987 0-2.871 1.484-2.871 3.229v5.477H55.98v-9.568h1.185v1.704c.08-.26.683-1.905 3.011-1.905 1.788 0 2.61.982 2.91 1.645.323.682.343 1.364.343 2.688v5.436h-1.185zM67.307 21.466h1.166V19.64h-1.166v1.826zm0 11.815h1.166v-9.568h-1.166v9.568zM78.996 23.713l-3.673 9.569h-.965l-3.312-9.569h1.185l2.65 7.784 2.95-7.784zM82.272 28.789c0 1.424.602 3.65 3.213 3.65.862 0 2.188-.18 3.11-2.005l1.104.32c-.441.984-1.445 2.769-4.155 2.769-3.894 0-4.578-3.45-4.578-5.115 0-3.271 2.19-4.935 4.418-4.935 2.71 0 4.315 2.366 4.315 4.854v.181h-7.427v.281zm6.063-1.264c-.28-2.467-1.928-2.99-2.971-2.99-2.028 0-2.932 1.646-3.072 2.99h6.043zM94.1 23.713v1.525c.503-1.123 1.446-1.666 2.63-1.666.16 0 .481 0 .824.04v1.064a4.525 4.525 0 0 0-.765-.06c-2.045 0-2.689 1.504-2.689 3.431v5.235h-1.184v-9.569H94.1zM100.408 30.554c.16.663.883 1.886 2.67 1.886 1.846 0 2.45-1.023 2.45-1.866 0-.823-.483-1.384-2.069-1.726l-1.124-.24c-1.486-.321-2.489-.983-2.489-2.388 0-.34.06-1.263.823-1.945.661-.602 1.767-.802 2.61-.802.28 0 1.466 0 2.348.621a2.626 2.626 0 0 1 1.045 1.545l-1.124.3c-.222-1.103-1.365-1.423-2.33-1.423-1.947 0-2.209 1.022-2.209 1.605 0 1.123 1.185 1.384 2.008 1.545l1.004.2c1.687.34 2.65 1.304 2.65 2.789 0 1.103-.883 2.868-3.573 2.868-.803 0-2.83-.12-3.855-2.568l1.165-.401zM110.128 21.466h1.166V19.64h-1.166v1.826zm0 11.815h1.166v-9.568h-1.166v9.568zM117.119 31.256c0 .541.08 1.164.783 1.164.48 0 .963-.34 1.324-.603v1.204c-.26.202-.763.442-1.586.442-.341 0-1.224-.02-1.526-.863-.12-.341-.141-1.043-.141-1.565v-6.319h-2.007v-1.003h2.007v-4.072h1.146v4.072h2.107v1.003h-2.107v6.54zM128.967 23.713L124.45 35.15c-.764 1.965-1.144 2.989-2.57 2.989-.663 0-1.065-.242-1.265-.382v-1.203c.542.38.924.461 1.244.461.682 0 .884-.421 1.287-1.445l.882-2.287-3.313-9.569h1.144l2.792 8.145 3.111-8.145h1.205zM51.942 14.283c0-.34.26-11.635.26-11.635l-3.071 11.635h-2.389L43.671 2.648s.26 11.174.26 11.635h-2.59V.12h3.856l2.77 10.514L50.697.119h3.834v14.164h-2.59zM62.04 14.584c-3.654 0-5.22-2.908-5.22-5.356 0-2.408 1.586-5.277 5.139-5.277 2.19 0 5.16 1.465 5.18 5.277 0 2.688-1.686 5.356-5.1 5.356m0-2.206c1.767 0 2.59-1.505 2.59-3.03 0-1.605-.862-3.23-2.709-3.23-1.406 0-2.59 1.024-2.59 3.05 0 1.765.984 3.21 2.71 3.21M71.516 4.252v1.184c.904-1.365 2.69-1.484 3.092-1.484 2.127 0 3.253 1.384 3.253 3.35v6.982H75.49V8.645c0-1.103-.28-2.347-1.766-2.347-.26 0-.762.04-1.264.462-.723.602-.944 1.444-.944 3.17v4.354h-2.43V4.252h2.43zM89.544 13.782c0 2.909-1.988 3.852-4.84 3.852-3.732 0-4.315-1.785-4.596-3.13h2.65c.22 1.043 1.445 1.243 2.008 1.243 1.425 0 2.388-.5 2.388-2.225v-.884c-1.124 1.003-2.529 1.063-3.031 1.063-2.108 0-4.337-1.344-4.337-4.775 0-3.51 2.39-4.974 4.538-4.974 1.286 0 2.269.54 2.83 1.364V4.253h2.39v9.529zm-4.818-7.684c-1.226 0-2.47.823-2.47 2.768 0 1.565.884 2.65 2.49 2.65 1.566 0 2.47-1.025 2.47-2.57 0-1.565-.825-2.848-2.49-2.848zM96.73 14.584c-3.652 0-5.218-2.908-5.218-5.356 0-2.408 1.584-5.277 5.138-5.277 2.19 0 5.16 1.465 5.18 5.277 0 2.688-1.686 5.356-5.1 5.356m0-2.206c1.767 0 2.59-1.505 2.59-3.03 0-1.605-.863-3.23-2.71-3.23-1.405 0-2.59 1.024-2.59 3.05 0 1.765.985 3.21 2.71 3.21M109.017.12c3.354 0 6.485 2.126 6.485 7.202 0 4.534-2.47 6.962-6.645 6.962h-5.36V.12h5.52zm-2.87 11.776h1.645c3.072 0 4.9-.582 4.9-4.574 0-3.491-1.727-4.814-4.357-4.814h-2.188v9.388zM124.234.12c2.972 0 4.297 1.645 4.297 3.47 0 1.164-.642 2.689-2.349 2.93 1.304.24 3.011 1.304 3.011 3.75 0 1.927-1.124 4.014-4.777 4.014h-6.525V.12h6.343zm-3.713 5.697h2.67c1.185 0 2.61-.38 2.61-1.785 0-1.445-1.466-1.746-2.53-1.746h-2.75v3.531zm0 6.18h3.493c1.807 0 2.469-.924 2.469-1.967 0-1.986-1.907-2.226-3.011-2.226h-2.951v4.193z" fill="#424243"/></g></svg>